<?xml version="1.0" encoding="UTF-8"?>
<svg width="16px" height="15px" viewBox="0 0 16 15" version="1.1" xmlns="http://www.w3.org/2000/svg" xmlns:xlink="http://www.w3.org/1999/xlink">
    <!-- Generator: Sketch 48.1 (47250) - http://www.bohemiancoding.com/sketch -->
    <title>Icon/扶뒬못</title>
    <desc>Created with Sketch.</desc>
    <defs></defs>
    <g id="UI-KIT-Color-Copy" stroke="none" stroke-width="1" fill="none" fill-rule="evenodd" transform="translate(-210.000000, -168.000000)">
        <path d="M214.571068,181.792893 L212.571068,181.792893 L212.571068,177.292893 C212.571068,177.016751 212.34721,176.792893 212.071068,176.792893 C211.794925,176.792893 211.571068,177.016751 211.571068,177.292893 L211.571068,182.292893 C211.571068,182.430964 211.627032,182.555964 211.717514,182.646447 C211.807997,182.736929 211.932997,182.792893 212.071068,182.792893 L223.071068,182.792893 C223.209139,182.792893 223.334139,182.736929 223.424621,182.646447 C223.515103,182.555964 223.571068,182.430964 223.571068,182.292893 L223.571068,177.292893 C223.571068,177.016751 223.34721,176.792893 223.071068,176.792893 C222.794925,176.792893 222.571068,177.016751 222.571068,177.292893 L222.571068,181.792893 L220.571068,181.792893 L220.571068,175.792893 C220.571068,175.240608 220.123353,174.792893 219.571068,174.792893 L215.571068,174.792893 C215.018783,174.792893 214.571068,175.240608 214.571068,175.792893 L214.571068,181.792893 Z M215.571068,175.792893 L219.571068,175.792893 L219.571068,181.792893 L215.571068,181.792893 L215.571068,175.792893 Z M217.571068,168 C217.699029,168 217.82699,168.048816 217.924621,168.146447 L224.995689,175.217514 C225.190951,175.412777 225.190951,175.729359 224.995689,175.924621 C224.800427,176.119883 224.483844,176.119883 224.288582,175.924621 L217.571068,169.207107 L210.853553,175.924621 C210.658291,176.119883 210.341709,176.119883 210.146447,175.924621 C209.951184,175.729359 209.951184,175.412777 210.146447,175.217514 L217.217514,168.146447 C217.315145,168.048816 217.443107,168 217.571068,168 Z" id="Icon/扶뒬못" fill="#000000"></path>
    </g>
</svg>