<?xml version="1.0" encoding="UTF-8"?>
<svg width="15px" height="15px" viewBox="0 0 15 15" version="1.1" xmlns="http://www.w3.org/2000/svg" xmlns:xlink="http://www.w3.org/1999/xlink">
    <!-- Generator: Sketch 48.1 (47250) - http://www.bohemiancoding.com/sketch -->
    <title>Icon/驾校信息</title>
    <desc>Created with Sketch.</desc>
    <defs></defs>
    <g id="UI-KIT-Color-Copy" stroke="none" stroke-width="1" fill="none" fill-rule="evenodd" transform="translate(-370.000000, -168.000000)">
        <path d="M382.616428,182.43787 C382.513088,182.770602 382.205132,183 381.85584,183 L372.968467,183 C372.617108,183 372.305018,182.766468 372.205811,182.429604 L370.03772,174.59751 C370.000517,174.465244 369.99225,174.361911 370.006717,174.260645 C370.00465,174.227579 370.002584,174.194512 370.002584,174.161446 L370.03772,169 C370.03772,168.307671 370.276083,168 370.968467,168 L383.968467,168 C384.660851,168 385.001536,168.307671 385.003603,169 L384.968467,174.161446 C384.968467,174.188312 384.968467,174.215179 384.9664,174.237912 C384.974667,174.339178 384.9664,174.436311 384.939532,174.52931 L382.616428,182.43787 Z M379.147232,174.675536 C379.130698,173.747608 378.489984,173.123479 377.553716,173.123479 C377.096949,173.123479 376.704254,173.270212 376.4211,173.54921 C376.137946,173.828208 375.982935,174.216739 375.974667,174.675536 L375.968467,175 L370.968467,175 L372.800177,182 L381.968467,182 L383.968467,175 L379.153433,175 L379.147232,174.675536 Z M374.652442,174 C375.154679,172.819941 376.223224,172.123479 377.554254,172.123479 C378.250772,172.123479 378.897686,172.317745 379.42059,172.685609 C379.879424,173.008007 380.236983,173.458537 380.468467,174 L383.968467,174 L383.968467,169 L370.968467,169 L370.968467,174 L374.652442,174 Z" id="Icon/驾校信息" fill="#000000" transform="translate(377.501801, 175.500000) scale(1, -1) translate(-377.501801, -175.500000) "></path>
    </g>
</svg>