<?xml version="1.0" encoding="UTF-8"?>
<svg width="16px" height="16px" viewBox="0 0 16 16" version="1.1" xmlns="http://www.w3.org/2000/svg" xmlns:xlink="http://www.w3.org/1999/xlink">
    <!-- Generator: Sketch 48.1 (47250) - http://www.bohemiancoding.com/sketch -->
    <title>Icon/我要创收</title>
    <desc>Created with Sketch.</desc>
    <defs></defs>
    <g id="UI-KIT-Color-Copy" stroke="none" stroke-width="1" fill="none" fill-rule="evenodd" transform="translate(-290.000000, -167.000000)">
        <path d="M298.5,175 L298.5,177 L300.5,177 C300.776142,177 301,177.223858 301,177.5 C301,177.776142 300.776142,178 300.5,178 L298.5,178 L298.5,179.5 C298.5,179.776142 298.276142,180 298,180 C297.723858,180 297.5,179.776142 297.5,179.5 L297.5,178 L295.5,178 C295.223858,178 295,177.776142 295,177.5 C295,177.223858 295.223858,177 295.5,177 L297.5,177 L297.5,175 L294.5,175 C294.223858,175 294,174.776142 294,174.5 C294,174.223858 294.223858,174 294.5,174 L301.5,174 C301.776142,174 302,174.223858 302,174.5 C302,174.776142 301.776142,175 301.5,175 L298.5,175 Z M298,183 C293.581722,183 290,179.418278 290,175 C290,170.581722 293.581722,167 298,167 C302.418278,167 306,170.581722 306,175 C306,179.418278 302.418278,183 298,183 Z M298,182 C301.865993,182 305,178.865993 305,175 C305,171.134007 301.865993,168 298,168 C294.134007,168 291,171.134007 291,175 C291,178.865993 294.134007,182 298,182 Z M298.06066,172.585786 L299.828427,170.818019 C300.023689,170.622757 300.340272,170.622757 300.535534,170.818019 C300.730796,171.013282 300.730796,171.329864 300.535534,171.525126 L298.414214,173.646447 C298.316582,173.744078 298.188621,173.792893 298.06066,173.792893 C297.932699,173.792893 297.804738,173.744078 297.707107,173.646447 L295.585786,171.525126 C295.390524,171.329864 295.390524,171.013282 295.585786,170.818019 C295.781049,170.622757 296.097631,170.622757 296.292893,170.818019 L298.06066,172.585786 Z" id="Icon/我要创收" fill="#000000"></path>
    </g>
</svg>