<?xml version="1.0" encoding="UTF-8"?>
<svg width="15px" height="16px" viewBox="0 0 15 16" version="1.1" xmlns="http://www.w3.org/2000/svg" xmlns:xlink="http://www.w3.org/1999/xlink">
    <!-- Generator: Sketch 48.1 (47250) - http://www.bohemiancoding.com/sketch -->
    <title>Icon/我要营销</title>
    <desc>Created with Sketch.</desc>
    <defs></defs>
    <g id="UI-KIT-Color-Copy" stroke="none" stroke-width="1" fill="none" fill-rule="evenodd" transform="translate(-331.000000, -167.000000)">
        <path d="M344.729621,177.682892 C344.353425,177.903142 343.915047,178.020296 343.467342,178.020296 L341.838193,178.020296 C342.093136,178.785703 342.158426,179.633899 342.164645,179.721374 C342.166199,179.740118 342.166199,179.755739 342.166199,179.769797 C342.166199,180.435233 342.069818,181.014755 341.88172,181.491182 C341.696731,181.950426 341.424688,182.314385 341.071809,182.575248 C340.745357,182.814242 340.361388,182.954827 339.933892,182.992316 C339.590341,183.018871 339.223471,182.976696 338.875256,182.864228 C338.376252,182.701774 338.009382,182.362808 337.787084,181.856703 C337.620749,181.481809 337.555459,181.069427 337.496387,180.702344 C337.490169,180.650796 337.483951,180.622679 337.479287,180.593 C337.457523,180.458664 337.438869,180.330575 337.412442,180.216545 C337.199471,179.259006 336.743994,178.385817 336.092645,177.690703 C335.74443,177.320496 335.374451,177.012771 334.990482,176.781587 C334.729321,176.623819 334.426187,176.54103 334.116835,176.54103 L332.231189,176.54103 C331.553413,176.54103 331,175.984939 331,175.303883 L331,169.258731 C331,168.579237 331.54875,168.027832 332.224971,168.027832 L334.856792,168.027832 C335.386888,168.027832 335.831484,167.885685 336.397333,167.702925 C337.372024,167.385828 338.553468,167 340.790439,167 C342.189517,167.001562 343.20929,167.359273 343.841984,168.066883 C344.137345,168.394915 344.342543,168.796363 344.432706,169.229052 C344.448251,169.305593 344.462242,169.379009 344.46846,169.44774 C344.892847,169.774209 345.163336,170.175657 345.273707,170.645836 C345.379416,171.10508 345.303244,171.520586 345.206863,171.808004 C345.558187,172.145408 345.771157,172.537484 345.836448,172.970173 C345.907956,173.445038 345.77893,173.85742 345.648349,174.135466 C345.794475,174.41976 345.89552,174.707178 345.951483,174.991472 C346.022992,175.361679 346.015219,175.722514 345.92972,176.067728 C345.741621,176.850317 345.186654,177.415781 344.729621,177.682892 Z M344.844836,173.161873 C344.804448,172.926223 344.625128,172.698644 344.310106,172.48559 C344.020932,172.288677 343.943388,171.910992 344.132402,171.623692 C344.140479,171.609166 344.363418,171.225024 344.274565,170.853795 C344.218023,170.618145 344.035472,170.406706 343.730143,170.224319 C343.516897,170.098424 343.400582,169.86923 343.42643,169.628738 C343.428045,169.602913 343.450662,169.150982 343.075867,168.752314 C342.668762,168.314908 341.904632,168.084101 340.869099,168.082487 C338.731797,168.082487 337.602565,168.445646 336.694656,168.737787 C336.142156,168.915332 335.61712,169.084806 335,169.129999 L335,175.623286 C335.16155,175.684619 335.316637,175.760479 335.460416,175.846023 C335.954758,176.139779 336.434561,176.527149 336.878822,177.001677 C337.709188,177.881329 338.292382,178.986947 338.565401,180.199092 C338.607404,180.383092 338.636483,180.575163 338.665562,180.755936 C338.798032,181.596851 338.899808,181.893835 339.242294,182.003589 C339.403843,182.055239 339.969267,182.200502 340.397374,181.887378 C340.798017,181.596851 341.014493,180.952849 341.017724,180.031231 C340.998338,179.753616 340.891716,178.930456 340.659084,178.380068 C340.521767,178.057259 340.554077,177.692486 340.749552,177.403573 C340.941796,177.114659 341.264895,176.940343 341.608996,176.940343 L343.629982,176.940343 C343.873922,176.940343 344.108169,176.87901 344.308491,176.761185 C344.565355,176.614307 344.867452,176.285042 344.964382,175.886374 C345.064543,175.478022 344.953074,175.019634 344.634821,174.520896 C344.487811,174.290088 344.50235,174.002789 344.671977,173.791349 C344.71398,173.733244 344.8933,173.458857 344.844836,173.161873 Z M332.001786,175.629999 L333.982143,175.629999 L333.982143,169.129999 L332,169.129999 C331.989286,169.129999 331.982143,169.136683 331.982143,169.141696 L331.982143,175.611619 C331.982143,175.621644 331.991071,175.629999 332.001786,175.629999 Z" id="Icon/我要营销" fill="#000000" transform="translate(338.500000, 175.000000) scale(1, -1) translate(-338.500000, -175.000000) "></path>
    </g>
</svg>