<?xml version="1.0" encoding="UTF-8"?>
<svg width="16px" height="16px" viewBox="0 0 16 16" version="1.1" xmlns="http://www.w3.org/2000/svg" xmlns:xlink="http://www.w3.org/1999/xlink">
    <!-- Generator: Sketch 47.1 (45422) - http://www.bohemiancoding.com/sketch -->
    <title>Icon/账号管理</title>
    <desc>Created with Sketch.</desc>
    <defs></defs>
    <g id="Symbols" stroke="none" stroke-width="1" fill="none" fill-rule="evenodd">
        <g id="UI-KIT-Color-Copy" transform="translate(-370.000000, -167.000000)" fill="#000000">
            <path d="M385.821092,173.309143 L385.887744,173.730103 C385.96492,174.193159 386,174.608858 385.994738,174.996492 C385.994738,175.387634 385.959658,175.801579 385.88599,176.262881 L385.819338,176.683841 L384.533655,177.113572 C384.421399,177.462618 384.281079,177.80114 384.114449,178.12563 L384.721333,179.337645 L384.472265,179.684938 C384.205657,180.051524 383.939048,180.370752 383.653146,180.656654 C383.377768,180.937294 383.060294,181.205657 382.683184,181.477527 L382.337645,181.726595 L381.12563,181.119711 C380.797632,181.284587 380.45911,181.424907 380.115326,181.537163 L379.687349,182.8246 L379.266389,182.891252 C378.803333,182.96492 378.389388,183 377.998246,183 C377.607104,183 377.193159,182.96492 376.731857,182.891252 L376.310897,182.8246 L375.88292,181.537163 C375.535628,181.426661 375.197106,181.284587 374.870862,181.117957 L373.660601,181.724841 L373.315062,181.475773 C372.934444,181.196887 372.61697,180.928524 372.3451,180.6549 C372.053936,180.361982 371.785573,180.044508 371.525981,179.683184 L371.276913,179.339399 L371.880289,178.130892 C371.713659,177.806402 371.573339,177.466126 371.461083,177.118834 L370.1754,176.689103 L370.108748,176.268143 C370.03508,175.806841 370,175.392896 370,175 C370,174.608858 370.03508,174.194913 370.108748,173.730103 L370.1754,173.309143 L371.461083,172.88292 C371.573339,172.535628 371.713659,172.197106 371.878535,171.872616 L371.271651,170.660601 L371.520719,170.313308 C372.022364,169.622232 372.62574,169.02061 373.313308,168.522473 L373.658847,168.273405 L374.869108,168.882043 C375.186582,168.720675 375.526858,168.580355 375.881166,168.464591 L376.309143,167.177154 L376.730103,167.110502 C377.205437,167.03508 377.608858,167 377.998246,167 C378.398158,167 378.799825,167.03508 379.264635,167.108748 L379.682087,167.173646 L380.110064,168.455821 C380.457356,168.568077 380.795878,168.708397 381.122122,168.875027 L382.334137,168.268143 L382.679676,168.517211 C383.36549,169.015348 383.968866,169.618724 384.474019,170.308046 L384.723087,170.655339 L384.116203,171.867354 C384.282833,172.191844 384.423153,172.53212 384.535409,172.879412 L385.821092,173.309143 Z M384.945867,175.693985 C384.977185,175.423175 384.993765,175.170787 384.993765,174.912872 C384.99745,174.677064 384.982712,174.428361 384.947709,174.152024 L384.295553,173.934638 L383.722614,173.743045 L383.542074,173.166421 C383.437066,172.82929 383.298897,172.497685 383.134937,172.180818 L382.8586,171.648409 L383.433381,170.497004 C383.107303,170.093551 382.738854,169.726944 382.337244,169.404551 L381.185839,169.981174 L380.651587,169.701153 C380.336562,169.539035 380.0068,169.402708 379.671511,169.2977 L379.094887,169.119002 L378.685908,167.897592 C378.41694,167.866274 378.16271,167.849693 377.915849,167.849693 C377.676356,167.849693 377.423968,167.866274 377.145789,167.897592 L376.928404,168.549748 L376.73681,169.122687 L376.160186,169.303227 C375.81937,169.410077 375.489608,169.546404 375.18011,169.708522 L374.644016,169.990386 L373.490769,169.413762 C373.089159,169.736155 372.722552,170.102763 372.400158,170.504373 L372.705971,171.117841 L372.97494,171.65762 L372.694918,172.191872 C372.530958,172.508739 372.394631,172.838501 372.291466,173.171948 L372.112767,173.750414 L370.889515,174.15755 C370.858197,174.428361 370.841616,174.680749 370.841616,174.929452 C370.841616,175.178156 370.856354,175.432386 370.889515,175.701354 L372.116452,176.108491 L372.29515,176.688799 C372.394631,177.016719 372.530958,177.344639 372.698602,177.665191 L372.978624,178.199442 L372.403843,179.350847 C372.569645,179.560864 372.73729,179.750615 372.915988,179.929313 C373.091001,180.104327 373.280753,180.271971 373.494453,180.441458 L374.107922,180.135645 L374.651385,179.864835 L375.189322,180.144856 C375.49145,180.305132 375.817528,180.439616 376.160186,180.544624 L376.740494,180.723322 L376.930246,181.299946 L377.147631,181.952102 C377.418442,181.98342 377.672672,182 377.919533,182 C378.168236,182 378.422467,181.985262 378.691435,181.952102 L378.90882,181.299946 L379.096729,180.728849 L379.673353,180.548309 C380.010484,180.441458 380.342089,180.305132 380.657113,180.141172 L381.191365,179.862992 L382.34277,180.439616 C382.556471,180.271971 382.746223,180.104327 382.921236,179.927471 C383.09625,179.752457 383.263894,179.562706 383.433381,179.349005 L382.854915,178.193916 L383.138621,177.657822 C383.302582,177.348324 383.437066,177.022246 383.538389,176.686957 L383.717087,176.106649 L384.293711,175.911371 L384.945867,175.693985 Z M377.995332,178 C376.338478,178 374.995332,176.656854 374.995332,175 C374.995332,173.343146 376.338478,172 377.995332,172 C379.652186,172 380.995332,173.343146 380.995332,175 C380.995332,176.656854 379.652186,178 377.995332,178 Z M377.995332,177 C379.099901,177 379.995332,176.104569 379.995332,175 C379.995332,173.895431 379.099901,173 377.995332,173 C376.890762,173 375.995332,173.895431 375.995332,175 C375.995332,176.104569 376.890762,177 377.995332,177 Z" id="Icon/账号管理"></path>
        </g>
    </g>
</svg>