<?xml version="1.0" encoding="UTF-8"?>
<svg width="11px" height="15px" viewBox="0 0 11 15" version="1.1" xmlns="http://www.w3.org/2000/svg" xmlns:xlink="http://www.w3.org/1999/xlink">
    <!-- Generator: Sketch 48.1 (47250) - http://www.bohemiancoding.com/sketch -->
    <title>Icon/客服支持</title>
    <desc>Created with Sketch.</desc>
    <defs></defs>
    <g id="UI-KIT-Color-Copy" stroke="none" stroke-width="1" fill="none" fill-rule="evenodd" transform="translate(-173.000000, -168.000000)">
        <path d="M180.056803,176.723431 C182.336199,177.394882 184,179.50314 184,182 C184,182.276142 183.776142,182.5 183.5,182.5 C183.223858,182.5 183,182.276142 183,182 C183,179.514719 180.985281,177.5 178.5,177.5 C176.014719,177.5 174,179.514719 174,182 C174,182.276142 173.776142,182.5 173.5,182.5 C173.223858,182.5 173,182.276142 173,182 C173,179.50314 174.663801,177.394882 176.943197,176.723431 C175.225144,176.089925 174,174.438036 174,172.5 C174,170.014719 176.014719,168 178.5,168 C180.985281,168 183,170.014719 183,172.5 C183,173.045904 182.902793,173.569104 182.724745,174.053236 C182.888012,174.135529 183,174.304686 183,174.5 C183,174.776142 182.776142,175 182.5,175 L182.242225,175 C181.718112,175.782985 180.954786,176.392313 180.056803,176.723431 Z M181.663184,174 C181.879154,173.545372 182,173.036799 182,172.5 C182,170.567003 180.432997,169 178.5,169 C176.567003,169 175,170.567003 175,172.5 C175,174.432997 176.567003,176 178.5,176 C179.453653,176 180.318223,175.618594 180.949491,175 L179.5,175 C179.426742,175 179.357164,174.984245 179.29447,174.955939 C179.201376,174.984582 179.102489,175 179,175 C178.447715,175 178,174.552285 178,174 C178,173.447715 178.447715,173 179,173 C179.552285,173 180,173.447715 180,174 L181.663184,174 Z" id="Icon/客服支持" fill="#000000"></path>
    </g>
</svg>