<?xml version="1.0" encoding="UTF-8"?>
<svg width="13px" height="15px" viewBox="0 0 13 15" version="1.1" xmlns="http://www.w3.org/2000/svg" xmlns:xlink="http://www.w3.org/1999/xlink">
    <!-- Generator: Sketch 48.1 (47250) - http://www.bohemiancoding.com/sketch -->
    <title>Icon/我要线索</title>
    <desc>Created with Sketch.</desc>
    <defs></defs>
    <g id="UI-KIT-Color-Copy" stroke="none" stroke-width="1" fill="none" fill-rule="evenodd" transform="translate(-252.000000, -168.000000)">
        <path d="M253,168 L261,168 L265,172 L265,182 C265,182.552285 264.552285,183 264,183 L253,183 C252.447715,183 252,182.552285 252,182 L252,169 C252,168.447715 252.447715,168 253,168 Z M260,169 L253,169 L253,182 L264,182 L264,173 L261,173 C260.447715,173 260,172.552285 260,172 L260,169 Z M261,169 L261,172 L264,172 L261,169 Z M255.5,173 L258.5,173 C258.776142,173 259,173.223858 259,173.5 C259,173.776142 258.776142,174 258.5,174 L255.5,174 C255.223858,174 255,173.776142 255,173.5 C255,173.223858 255.223858,173 255.5,173 Z M255.5,176 L261.5,176 C261.776142,176 262,176.223858 262,176.5 C262,176.776142 261.776142,177 261.5,177 L255.5,177 C255.223858,177 255,176.776142 255,176.5 C255,176.223858 255.223858,176 255.5,176 Z M255.5,179 L261.5,179 C261.776142,179 262,179.223858 262,179.5 C262,179.776142 261.776142,180 261.5,180 L255.5,180 C255.223858,180 255,179.776142 255,179.5 C255,179.223858 255.223858,179 255.5,179 Z" id="Icon/我要线索" fill="#000000"></path>
    </g>
</svg>